<mxfile host="65bd71144e">
    <diagram id="HqVvy8os-IMtqVGMUyCh" name="Page-1">
        <mxGraphModel dx="1264" dy="802" grid="1" gridSize="10" guides="1" tooltips="1" connect="1" arrows="1" fold="1" page="1" pageScale="1" pageWidth="850" pageHeight="1100" math="0" shadow="0">
            <root>
                <mxCell id="0"/>
                <mxCell id="1" parent="0"/>
                <mxCell id="18" value="Question:&amp;nbsp;&lt;span style=&quot;white-space: pre;&quot;&gt;&#x9;&lt;/span&gt;" style="text;strokeColor=#DFDFDF;fillColor=#F7F7F7;align=left;verticalAlign=middle;spacingLeft=10;spacingRight=10;overflow=hidden;points=[[0,0.5],[1,0.5]];portConstraint=eastwest;rotatable=0;whiteSpace=wrap;html=1;shape=mxgraph.bootstrap.topButton;rSize=5;fontColor=#333333;" vertex="1" parent="1">
                    <mxGeometry x="230" y="350" width="430" height="30" as="geometry"/>
                </mxCell>
                <mxCell id="19" value="Answer: as a button" style="text;strokeColor=#DFDFDF;fillColor=#FFFFFF;align=left;verticalAlign=middle;spacingLeft=10;spacingRight=10;overflow=hidden;points=[[0,0.5],[1,0.5]];portConstraint=eastwest;rotatable=0;whiteSpace=wrap;html=1;rSize=5;fontColor=#333333;" vertex="1" parent="1">
                    <mxGeometry x="230" y="380" width="430" height="30" as="geometry"/>
                </mxCell>
                <mxCell id="20" value="Button&lt;span style=&quot;white-space: pre;&quot;&gt;&#x9;&lt;/span&gt;" style="text;strokeColor=#DFDFDF;fillColor=#FFFFFF;align=left;verticalAlign=middle;spacingLeft=10;spacingRight=10;overflow=hidden;points=[[0,0.5],[1,0.5]];portConstraint=eastwest;rotatable=0;whiteSpace=wrap;html=1;rSize=5;fontColor=#333333;" vertex="1" parent="1">
                    <mxGeometry x="230" y="410" width="430" height="30" as="geometry"/>
                </mxCell>
                <mxCell id="21" value="Button" style="text;strokeColor=#DFDFDF;fillColor=#FFFFFF;align=left;verticalAlign=middle;spacingLeft=10;spacingRight=10;overflow=hidden;points=[[0,0.5],[1,0.5]];portConstraint=eastwest;rotatable=0;whiteSpace=wrap;html=1;shape=mxgraph.bootstrap.bottomButton;rSize=5;fontColor=#333333;" vertex="1" parent="1">
                    <mxGeometry x="230" y="440" width="430" height="30" as="geometry"/>
                </mxCell>
                <mxCell id="23" value="Button&amp;nbsp;" style="text;strokeColor=#DFDFDF;fillColor=#FFFFFF;align=left;verticalAlign=middle;spacingLeft=10;spacingRight=10;overflow=hidden;points=[[0,0.5],[1,0.5]];portConstraint=eastwest;rotatable=0;whiteSpace=wrap;html=1;rSize=5;fontColor=#333333;" vertex="1" parent="1">
                    <mxGeometry x="230" y="470" width="430" height="30" as="geometry"/>
                </mxCell>
                <mxCell id="24" value="&lt;font style=&quot;font-size: 12px; color: rgb(255, 255, 255);&quot;&gt;Next Quetion&lt;/font&gt;&lt;div&gt;&lt;br&gt;&lt;/div&gt;" style="html=1;shadow=0;dashed=0;shape=mxgraph.bootstrap.rrect;rSize=5;strokeColor=none;strokeWidth=1;fillColor=#0085FC;fontColor=#FFFFFF;whiteSpace=wrap;align=center;verticalAlign=middle;spacingLeft=0;fontStyle=0;fontSize=16;spacing=5;" vertex="1" parent="1">
                    <mxGeometry x="400" y="540" width="80" height="40" as="geometry"/>
                </mxCell>
                <mxCell id="25" value="Save for later" style="html=1;shadow=0;dashed=0;shape=mxgraph.bootstrap.rrect;rSize=5;strokeColor=none;strokeWidth=1;fillColor=#6C767D;fontColor=#FFFFFF;whiteSpace=wrap;align=center;verticalAlign=middle;spacingLeft=0;fontStyle=0;fontSize=16;spacing=5;" vertex="1" parent="1">
                    <mxGeometry x="560" y="500" width="100" height="40" as="geometry"/>
                </mxCell>
                <mxCell id="26" value="Home" style="rounded=0;whiteSpace=wrap;html=1;" vertex="1" parent="1">
                    <mxGeometry x="40" y="20" width="120" height="60" as="geometry"/>
                </mxCell>
                <mxCell id="27" value="Log out&lt;div&gt;&lt;br&gt;&lt;/div&gt;" style="rounded=0;whiteSpace=wrap;html=1;" vertex="1" parent="1">
                    <mxGeometry x="700" y="10" width="120" height="60" as="geometry"/>
                </mxCell>
                <mxCell id="28" value="Title&amp;nbsp;" style="rounded=1;whiteSpace=wrap;html=1;" vertex="1" parent="1">
                    <mxGeometry x="120" y="170" width="700" height="60" as="geometry"/>
                </mxCell>
                <mxCell id="29" value="Score" style="rounded=0;whiteSpace=wrap;html=1;" vertex="1" parent="1">
                    <mxGeometry x="170" y="280" width="120" height="60" as="geometry"/>
                </mxCell>
                <mxCell id="30" value="Question 1/10..." style="rounded=0;whiteSpace=wrap;html=1;" vertex="1" parent="1">
                    <mxGeometry x="600" y="280" width="120" height="60" as="geometry"/>
                </mxCell>
                <mxCell id="35" value="Questions will appear 1 at a time&lt;div&gt;Questions are all worth 1 point right now - should medium be 2 points and hard be 3 points&amp;nbsp;&lt;/div&gt;&lt;div&gt;If users pick a certain category, can we have a special title or background image&lt;/div&gt;&lt;div&gt;&lt;br&gt;&lt;/div&gt;" style="rounded=0;whiteSpace=wrap;html=1;align=left;" vertex="1" parent="1">
                    <mxGeometry x="40" y="600" width="760" height="130" as="geometry"/>
                </mxCell>
            </root>
        </mxGraphModel>
    </diagram>
</mxfile>